<svg width="30" height="30" viewBox="0 0 30 30" fill="none" xmlns="http://www.w3.org/2000/svg">
<circle cx="15" cy="15" r="15" fill="#B5FBB4"/>
<path d="M18.3332 12.9999V11.6666C18.3332 9.79992 16.8665 8.33325 14.9998 8.33325C13.1332 8.33325 11.6665 9.79992 11.6665 11.6666V12.9999C10.5332 12.9999 9.6665 13.8666 9.6665 14.9999V19.6666C9.6665 20.7999 10.5332 21.6666 11.6665 21.6666H18.3332C19.4665 21.6666 20.3332 20.7999 20.3332 19.6666V14.9999C20.3332 13.8666 19.4665 12.9999 18.3332 12.9999ZM12.9998 11.6666C12.9998 10.5333 13.8665 9.66659 14.9998 9.66659C16.1332 9.66659 16.9998 10.5333 16.9998 11.6666V12.9999H12.9998V11.6666Z" fill="#3DE35D"/>
</svg>
