<svg width="24" height="24" viewBox="0 0 24 24" fill="none" xmlns="http://www.w3.org/2000/svg">
<path d="M3.63654 11.2936C3.44906 11.4812 3.34375 11.7355 3.34375 12.0006C3.34375 12.2658 3.44907 12.5201 3.63654 12.7076L9.29354 18.3646C9.38578 18.4601 9.49613 18.5363 9.61813 18.5887C9.74014 18.6411 9.87136 18.6687 10.0041 18.6699C10.1369 18.671 10.2686 18.6457 10.3915 18.5955C10.5144 18.5452 10.626 18.4709 10.7199 18.377C10.8138 18.2831 10.8881 18.1715 10.9384 18.0486C10.9886 17.9257 11.0139 17.794 11.0128 17.6612C11.0116 17.5285 10.984 17.3972 10.9316 17.2752C10.8792 17.1532 10.803 17.0429 10.7075 16.9506L6.75754 13.0006L20.0005 13.0006C20.2658 13.0006 20.5201 12.8953 20.7076 12.7077C20.8952 12.5202 21.0005 12.2658 21.0005 12.0006C21.0005 11.7354 20.8952 11.4811 20.7076 11.2935C20.5201 11.106 20.2658 11.0006 20.0005 11.0006L6.75754 11.0006L10.7075 7.05063C10.8897 6.86203 10.9905 6.60943 10.9882 6.34723C10.9859 6.08504 10.8808 5.83422 10.6954 5.64881C10.5099 5.46341 10.2591 5.35824 9.99694 5.35596C9.73474 5.35368 9.48214 5.45447 9.29354 5.63663L3.63654 11.2936Z" fill="black"/>
</svg>
